<svg width="35" height="35" viewBox="0 0 35 35" fill="none" xmlns="http://www.w3.org/2000/svg">
<circle cx="17.5" cy="17.5" r="17.5" fill="#F39C12"/>
<path d="M17.5668 26C15.5668 26 15.2334 24.3333 15.0668 23.5H20.0668C20.0668 24.5 19.0668 26 17.5668 26Z" stroke="#866C6C"/>
<path d="M12.0667 20V14.5C12.5667 12 15.0667 10 17.0667 10C19.0667 10 22.0667 11 23.0667 14.5C23.0667 16 23.0667 17 23.0667 20M12.0667 20C9.06675 20 9.56674 24 12.0667 23.5H23.0667C25.5667 23.5 25.0667 20 23.0667 20M12.0667 20C20.8667 20 21.0667 20 20.0667 20H23.0667" stroke="#866C6C"/>
</svg>
